<svg width="24" height="24" viewBox="0 0 24 24" fill="none" xmlns="http://www.w3.org/2000/svg">
<rect x="0.6" y="0.6" width="22.8" height="22.8" rx="1.4" transform="matrix(0 1 1 0 0 0)" fill="#F8F8F8" stroke="#DDDDDD" stroke-width="1.2"/>
<path d="M10.5865 13.5627C10.3909 13.7598 10.0721 13.7598 9.87656 13.5627L7.25794 10.9231C7.06236 10.7259 6.7436 10.7259 6.54802 10.9231L5.84934 11.6274C5.65596 11.8223 5.65596 12.1367 5.84934 12.3316L9.87656 16.3911C10.0721 16.5882 10.3909 16.5882 10.5865 16.3911L18.1507 8.76635C18.344 8.57142 18.344 8.25701 18.1507 8.06207L17.452 7.3578C17.2564 7.16066 16.9376 7.16066 16.7421 7.3578L10.5865 13.5627Z" fill="#DDDDDD"/>
</svg>
