<svg width="14" height="14" viewBox="0 0 14 14" fill="none" xmlns="http://www.w3.org/2000/svg">
<path d="M1.35456 0.647453L1.00201 0.292896L0.292896 0.99799L0.645443 1.35255L1.35456 0.647453ZM12.4244 13.1987L12.777 13.5533L13.4861 12.8482L13.1336 12.4936L12.4244 13.1987ZM13.2007 1.35255L13.5533 0.99799L12.8441 0.292896L12.4916 0.647453L13.2007 1.35255ZM0.7126 12.4936L0.360053 12.8482L1.06917 13.5533L1.42171 13.1987L0.7126 12.4936ZM0.645443 1.35255L12.4244 13.1987L13.1336 12.4936L1.35456 0.647453L0.645443 1.35255ZM12.4916 0.647453L0.7126 12.4936L1.42171 13.1987L13.2007 1.35255L12.4916 0.647453Z" fill="#222222"/>
</svg>
