<svg width="16" height="10" viewBox="0 0 16 10" fill="none" xmlns="http://www.w3.org/2000/svg">
<path d="M6.88172 6.72043C6.88172 5.96774 6.63321 5.32258 6.1362 4.78495C5.63919 4.21147 5.00836 3.83513 4.24373 3.65592C4.32019 3.18996 4.51135 2.70609 4.8172 2.2043C5.16129 1.66667 5.52449 1.23656 5.90681 0.913979L4.75986 0C1.58662 1.97133 0 4.21147 0 6.72043C0 7.65233 0.32497 8.44086 0.97491 9.08602C1.66308 9.69534 2.48507 10 3.44086 10C4.39665 10 5.19952 9.67742 5.84946 9.03226C6.53763 8.3871 6.88172 7.61649 6.88172 6.72043ZM16 6.72043C16 5.96774 15.7515 5.32258 15.2545 4.78495C14.7575 4.21147 14.1266 3.83513 13.362 3.65592C13.4767 3.15412 13.687 2.65233 13.9928 2.15054C14.3369 1.64875 14.7001 1.23656 15.0824 0.913979L13.8781 0C10.6667 2.04301 9.06093 4.28315 9.06093 6.72043C9.06093 7.61649 9.40502 8.3871 10.0932 9.03226C10.7814 9.67742 11.6033 10 12.5591 10C13.4767 10 14.2796 9.67742 14.9677 9.03226C15.6559 8.3871 16 7.61649 16 6.72043Z" fill="#BF8365"/>
</svg>
