<svg width="22" height="15" viewBox="0 0 22 15" fill="none" xmlns="http://www.w3.org/2000/svg">
<path d="M9.46237 10.0806C9.46237 8.95162 9.12067 7.98387 8.43728 7.17742C7.75388 6.31721 6.8865 5.75269 5.83513 5.48387C5.94026 4.78495 6.20311 4.05914 6.62366 3.30645C7.09677 2.5 7.59618 1.85484 8.12186 1.37097L6.5448 0C2.1816 2.95699 0 6.31721 0 10.0806C0 11.4785 0.446834 12.6613 1.3405 13.629C2.28674 14.543 3.41696 15 4.73118 15C6.0454 15 7.14934 14.5161 8.04301 13.5484C8.98925 12.5806 9.46237 11.4247 9.46237 10.0806ZM22 10.0806C22 8.95162 21.6583 7.98387 20.9749 7.17742C20.2915 6.31721 19.4241 5.75269 18.3728 5.48387C18.5305 4.73118 18.8196 3.9785 19.2401 3.22581C19.7133 2.47312 20.2127 1.85484 20.7383 1.37097L19.0824 0C14.6667 3.06452 12.4588 6.42473 12.4588 10.0806C12.4588 11.4247 12.9319 12.5806 13.8781 13.5484C14.8244 14.5161 15.9546 15 17.2688 15C18.5305 15 19.6344 14.5161 20.5806 13.5484C21.5269 12.5806 22 11.4247 22 10.0806Z" fill="#BF8365"/>
</svg>
