<svg width="26" height="26" viewBox="0 0 26 26" fill="none" xmlns="http://www.w3.org/2000/svg">
<path d="M4.33337 21.6667H21.6667" stroke="white" stroke-width="2" stroke-linecap="round" stroke-linejoin="round"/>
<path d="M8.66671 21.6666V22.6666C8.93192 22.6666 9.18628 22.5612 9.37381 22.3737L8.66671 21.6666ZM4.33337 21.6666H3.33337C3.33337 22.2189 3.78109 22.6666 4.33337 22.6666V21.6666ZM4.33337 17.3333L3.62627 16.6261C3.43873 16.8137 3.33337 17.068 3.33337 17.3333H4.33337ZM16.5673 5.09928L17.2744 5.80639L17.2744 5.80639L16.5673 5.09928ZM18.0994 5.09928L17.3923 5.80639L17.3923 5.80639L18.0994 5.09928ZM20.9007 7.90055L21.6078 7.19345V7.19345L20.9007 7.90055ZM20.9007 9.43262L20.1936 8.72551L20.9007 9.43262ZM8.66671 20.6666H4.33337V22.6666H8.66671V20.6666ZM5.33337 21.6666V17.3333H3.33337V21.6666H5.33337ZM5.04048 18.0404L17.2744 5.80639L15.8602 4.39218L3.62627 16.6261L5.04048 18.0404ZM17.3923 5.80639L20.1936 8.60766L21.6078 7.19345L18.8065 4.39218L17.3923 5.80639ZM20.1936 8.72551L7.9596 20.9595L9.37381 22.3737L21.6078 10.1397L20.1936 8.72551ZM20.1936 8.60766C20.2261 8.6402 20.2261 8.69297 20.1936 8.72551L21.6078 10.1397C22.4214 9.32613 22.4214 8.00704 21.6078 7.19345L20.1936 8.60766ZM17.2744 5.80639C17.307 5.77385 17.3598 5.77385 17.3923 5.80639L18.8065 4.39218C17.9929 3.57858 16.6738 3.57858 15.8602 4.39218L17.2744 5.80639Z" fill="white"/>
</svg>
