<svg width="132" height="20" viewBox="0 0 132 20" fill="none" xmlns="http://www.w3.org/2000/svg">
<path d="M10.6573 0.426581L13.1852 5.78932C13.2938 6.01683 13.4954 6.17934 13.728 6.21184L19.3732 7.07313C19.9781 7.17063 20.2107 7.93441 19.7765 8.37318L15.6976 12.5334C15.5115 12.7121 15.434 12.9721 15.4805 13.2159L16.4421 19.0987C16.5506 19.7324 15.9148 20.2037 15.3875 19.9112L10.3471 17.1323C10.13 17.0186 9.88183 17.0186 9.6647 17.1323L4.62433 19.9112C4.08152 20.2037 3.46116 19.7324 3.56972 19.0987L4.53127 13.2159C4.5778 12.9721 4.50026 12.7121 4.31415 12.5334L0.219814 8.37318C-0.214433 7.93441 0.0337081 7.15438 0.623044 7.05688L6.26826 6.19559C6.5009 6.16308 6.71802 6.01683 6.82658 5.78932L9.35452 0.426581C9.60267 -0.142194 10.3781 -0.142194 10.6573 0.426581Z" fill="#EADFD9"/>
<path d="M66.6573 0.426581L69.1852 5.78932C69.2938 6.01683 69.4954 6.17934 69.728 6.21184L75.3732 7.07313C75.9781 7.17063 76.2107 7.93441 75.7765 8.37318L71.6976 12.5334C71.5115 12.7121 71.434 12.9721 71.4805 13.2159L72.4421 19.0987C72.5506 19.7324 71.9148 20.2037 71.3875 19.9112L66.3471 17.1323C66.13 17.0186 65.8818 17.0186 65.6647 17.1323L60.6243 19.9112C60.0815 20.2037 59.4612 19.7324 59.5697 19.0987L60.5313 13.2159C60.5778 12.9721 60.5003 12.7121 60.3141 12.5334L56.2198 8.37318C55.7856 7.93441 56.0337 7.15438 56.623 7.05688L62.2683 6.19559C62.5009 6.16308 62.718 6.01683 62.8266 5.78932L65.3545 0.426581C65.6027 -0.142194 66.3781 -0.142194 66.6573 0.426581Z" fill="#EADFD9"/>
<path d="M38.6573 0.426581L41.1852 5.78932C41.2938 6.01683 41.4954 6.17934 41.728 6.21184L47.3732 7.07313C47.9781 7.17063 48.2107 7.93441 47.7765 8.37318L43.6976 12.5334C43.5115 12.7121 43.434 12.9721 43.4805 13.2159L44.4421 19.0987C44.5506 19.7324 43.9148 20.2037 43.3875 19.9112L38.3471 17.1323C38.13 17.0186 37.8818 17.0186 37.6647 17.1323L32.6243 19.9112C32.0815 20.2037 31.4612 19.7324 31.5697 19.0987L32.5313 13.2159C32.5778 12.9721 32.5003 12.7121 32.3141 12.5334L28.2198 8.37318C27.7856 7.93441 28.0337 7.15438 28.623 7.05688L34.2683 6.19559C34.5009 6.16308 34.718 6.01683 34.8266 5.78932L37.3545 0.426581C37.6027 -0.142194 38.3781 -0.142194 38.6573 0.426581Z" fill="#EADFD9"/>
<path d="M94.6573 0.426581L97.1852 5.78932C97.2938 6.01683 97.4954 6.17934 97.728 6.21184L103.373 7.07313C103.978 7.17063 104.211 7.93441 103.776 8.37318L99.6976 12.5334C99.5115 12.7121 99.434 12.9721 99.4805 13.2159L100.442 19.0987C100.551 19.7324 99.9148 20.2037 99.3875 19.9112L94.3471 17.1323C94.13 17.0186 93.8818 17.0186 93.6647 17.1323L88.6243 19.9112C88.0815 20.2037 87.4612 19.7324 87.5697 19.0987L88.5313 13.2159C88.5778 12.9721 88.5003 12.7121 88.3141 12.5334L84.2198 8.37318C83.7856 7.93441 84.0337 7.15438 84.623 7.05688L90.2683 6.19559C90.5009 6.16308 90.718 6.01683 90.8266 5.78932L93.3545 0.426581C93.6027 -0.142194 94.3781 -0.142194 94.6573 0.426581Z" fill="#EADFD9"/>
<path d="M122.657 0.426581L125.185 5.78932C125.294 6.01683 125.495 6.17934 125.728 6.21184L131.373 7.07313C131.978 7.17063 132.211 7.93441 131.776 8.37318L127.698 12.5334C127.512 12.7121 127.434 12.9721 127.481 13.2159L128.442 19.0987C128.551 19.7324 127.915 20.2037 127.387 19.9112L122.347 17.1323C122.13 17.0186 121.882 17.0186 121.665 17.1323L116.624 19.9112C116.082 20.2037 115.461 19.7324 115.57 19.0987L116.531 13.2159C116.578 12.9721 116.5 12.7121 116.314 12.5334L112.22 8.37318C111.786 7.93441 112.034 7.15438 112.623 7.05688L118.268 6.19559C118.501 6.16309 118.718 6.01683 118.827 5.78932L121.355 0.426581C121.603 -0.142194 122.378 -0.142194 122.657 0.426581Z" fill="#EADFD9"/>
</svg>
