<svg width="22" height="22" viewBox="0 0 22 22" fill="none" xmlns="http://www.w3.org/2000/svg">
<mask id="mask0_332_1432" style="mask-type:alpha" maskUnits="userSpaceOnUse" x="0" y="0" width="22" height="22">
<path fill-rule="evenodd" clip-rule="evenodd" d="M0 0H22V22H0V0Z" fill="white"/>
</mask>
<g mask="url(#mask0_332_1432)">
<path fill-rule="evenodd" clip-rule="evenodd" d="M19.9737 15.8145C19.9737 18.1421 18.0865 20.0292 15.7589 20.0292H6.24043C3.91288 20.0292 2.02567 18.1421 2.02567 15.8145V6.29699C2.02567 3.96776 3.91288 2.08143 6.24043 2.08143H15.7589C18.0865 2.08143 19.9737 3.96776 19.9737 6.29699V15.8145ZM15.6511 0H6.3502C2.84356 0 0 2.84268 0 6.35013V15.6509C0 19.1575 2.84356 22.0002 6.3502 22.0002H15.6511C19.1577 22.0002 22.0004 19.1575 22.0004 15.6509V6.35013C22.0004 2.84268 19.1577 0 15.6511 0Z" fill="#AAAAAA"/>
<path fill-rule="evenodd" clip-rule="evenodd" d="M10.9992 14.7535C8.95556 14.7535 7.29873 13.0975 7.29873 11.0531C7.29873 9.00946 8.95556 7.35349 10.9992 7.35349C13.0428 7.35349 14.6996 9.00946 14.6996 11.0531C14.6996 13.0975 13.0428 14.7535 10.9992 14.7535ZM10.9978 5.34521C7.84566 5.34521 5.28943 7.89972 5.28943 11.0527C5.28943 14.2056 7.84566 16.761 10.9978 16.761C14.15 16.761 16.7062 14.2056 16.7062 11.0527C16.7062 7.89972 14.15 5.34521 10.9978 5.34521Z" fill="#AAAAAA"/>
<path fill-rule="evenodd" clip-rule="evenodd" d="M16.8966 3.80029C16.1621 3.80029 15.567 4.39535 15.567 5.12897C15.567 5.86429 16.1621 6.45935 16.8966 6.45935C17.631 6.45935 18.2261 5.86429 18.2261 5.12897C18.2261 4.39535 17.631 3.80029 16.8966 3.80029Z" fill="#AAAAAA"/>
</g>
</svg>
