<svg width="15" height="15" viewBox="0 0 15 15" fill="none" xmlns="http://www.w3.org/2000/svg">
<path d="M7.99295 0.319936L9.88891 4.34199C9.97033 4.51262 10.1215 4.6345 10.296 4.65888L14.5299 5.30484C14.9836 5.37797 15.158 5.95081 14.8324 6.27989L11.7732 9.40003C11.6337 9.53409 11.5755 9.7291 11.6104 9.91192L12.3316 14.324C12.413 14.7993 11.9361 15.1528 11.5406 14.9334L7.76032 12.8492C7.59748 12.7639 7.41137 12.7639 7.24853 12.8492L3.46824 14.9334C3.06114 15.1528 2.59587 14.7993 2.67729 14.324L3.39846 9.91192C3.43335 9.7291 3.37519 9.53409 3.23561 9.40003L0.164861 6.27989C-0.160825 5.95081 0.0252811 5.36578 0.467283 5.29266L4.7012 4.64669C4.87567 4.62231 5.03852 4.51262 5.11994 4.34199L7.01589 0.319936C7.202 -0.106645 7.78358 -0.106645 7.99295 0.319936Z" fill="#333333"/>
</svg>
