<svg width="24" height="24" viewBox="0 0 24 24" fill="none" xmlns="http://www.w3.org/2000/svg">
<path d="M22.4541 6.74854C22.2027 5.80926 21.4645 5.07113 20.5252 4.8197C18.8225 4.36353 11.9994 4.36353 11.9994 4.36353C11.9994 4.36353 5.1763 4.36353 3.47546 4.8197C2.53614 5.07113 1.79797 5.80926 1.54652 6.74854C1.09033 8.4493 1.09033 11.9999 1.09033 11.9999C1.09033 11.9999 1.09033 15.5505 1.54652 17.2512C1.79797 18.1905 2.53614 18.9286 3.47546 19.1801C5.1763 19.6363 11.9994 19.6363 11.9994 19.6363C11.9994 19.6363 18.8225 19.6363 20.5234 19.1801C21.4627 18.9286 22.2009 18.1905 22.4523 17.2512C22.9085 15.5505 22.9085 11.9999 22.9085 11.9999C22.9085 11.9999 22.9085 8.4493 22.4541 6.74854ZM9.81724 15.2721V8.72767L15.4855 11.9999L9.81724 15.2721Z" fill="#AAAAAA"/>
</svg>
