<svg width="18" height="18" viewBox="0 0 18 18" fill="none" xmlns="http://www.w3.org/2000/svg">
<circle cx="9" cy="9" r="9" fill="#BF8365"/>
<path d="M8.03896 11.2832V10.7219C8.03896 10.5094 8.04329 10.318 8.05195 10.148C8.06926 9.97789 8.10823 9.81207 8.16883 9.65051C8.22944 9.48044 8.32468 9.30612 8.45455 9.12755C8.59307 8.94898 8.78788 8.74915 9.03896 8.52806C9.32468 8.26446 9.55411 8.04762 9.72727 7.87755C9.90043 7.69898 10.0303 7.54167 10.1169 7.40561C10.2121 7.26105 10.2727 7.12925 10.2987 7.0102C10.3247 6.88265 10.3377 6.73384 10.3377 6.56378V6.43622C10.3377 6.17262 10.2294 5.94303 10.013 5.74745C9.8052 5.54337 9.44589 5.44133 8.93507 5.44133C8.52814 5.44133 8.15584 5.51786 7.81818 5.67092C7.48918 5.82398 7.18615 6.03231 6.90909 6.29592L6 5.17347C6.41558 4.76531 6.87446 4.46769 7.37662 4.28061C7.88745 4.09354 8.42424 4 8.98701 4C9.4632 4 9.88745 4.05952 10.2597 4.17857C10.632 4.29762 10.9481 4.46344 11.2078 4.67602C11.4675 4.8801 11.6623 5.13095 11.7922 5.42857C11.9307 5.71769 12 6.03656 12 6.3852V6.56378C12 6.8784 11.9567 7.15901 11.8701 7.40561C11.7836 7.64371 11.6667 7.8648 11.5195 8.06888C11.381 8.27296 11.2165 8.46854 11.026 8.65561C10.8442 8.83418 10.6537 9.01701 10.4545 9.20408C10.29 9.35714 10.1515 9.4932 10.039 9.61225C9.92641 9.72279 9.8355 9.83333 9.76623 9.94388C9.70563 10.0459 9.65801 10.1607 9.62338 10.2883C9.5974 10.4158 9.58442 10.5731 9.58442 10.7602V11.2832H8.03896ZM7.96104 12.3418H9.67533V14H7.96104V12.3418Z" fill="white"/>
</svg>
